<svg width="15" height="15" viewBox="0 0 22 22" fill="none" xmlns="http://www.w3.org/2000/svg">
<g clip-path="url(#clip0_197_504)">
<path fill-rule="evenodd" clip-rule="evenodd" d="M21.6044 19.0607C20.9254 21.1243 18.2648 22.1539 16.364 21.9823C13.768 21.7477 10.9432 20.3705 8.79897 18.8539C5.6471 16.6246 2.6947 13.1765 0.974302 9.51714C-0.241565 6.9314 -0.514365 3.75167 1.29403 1.39474C1.96283 0.523538 2.68737 0.0586048 3.7727 0.0043381C5.28043 -0.0689952 5.49163 0.793405 6.00937 2.13687C6.3951 3.14154 6.9099 4.16674 7.19737 5.20807C7.73563 7.1514 5.8539 7.23207 5.6163 8.82047C5.46963 9.8222 6.68257 11.1657 7.2311 11.8799C8.2884 13.271 9.58336 14.4642 11.0562 15.4043C11.8922 15.9309 13.2386 16.8798 14.1948 16.3562C15.6674 15.5495 15.5295 13.0665 17.5872 13.9069C18.6535 14.341 19.686 14.9673 20.7039 15.5158C22.2776 16.3621 22.2043 17.2391 21.6044 19.0607C22.0532 17.6997 21.1556 20.4218 21.6044 19.0607Z" fill="#559F5D"/>
</g>
<defs>
<clipPath id="clip0_197_504">
<rect width="22" height="22" fill="white"/>
</clipPath>
</defs>
</svg>
