<svg width="30" height="23" viewBox="0 0 30 23" fill="none" xmlns="http://www.w3.org/2000/svg">
<path d="M30 4.49158C30 5.00786 29.8194 5.44669 29.4581 5.80808L15.4452 19.8249L12.8129 22.4579C12.4516 22.8193 12.0129 23 11.4968 23C10.9806 23 10.5419 22.8193 10.1806 22.4579L7.54839 19.8249L0.541935 12.8165C0.180645 12.4551 0 12.0163 0 11.5C0 10.9837 0.180645 10.5449 0.541935 10.1835L3.17419 7.55051C3.53548 7.18911 3.97419 7.00842 4.49032 7.00842C5.00645 7.00842 5.44516 7.18911 5.80645 7.55051L11.4968 13.2618L24.1935 0.542088C24.5548 0.180696 24.9935 0 25.5097 0C26.0258 0 26.4645 0.180696 26.8258 0.542088L29.4581 3.17508C29.8194 3.53648 30 3.97531 30 4.49158Z" fill="#00D917"/>
</svg>
