<svg width="21" height="16" viewBox="0 0 21 16" fill="none" xmlns="http://www.w3.org/2000/svg">
<path d="M21 3.12458C21 3.48373 20.8735 3.789 20.6206 4.0404L10.8116 13.7912L8.96903 15.6229C8.71613 15.8743 8.40903 16 8.04774 16C7.68645 16 7.37935 15.8743 7.12645 15.6229L5.28387 13.7912L0.379355 8.91582C0.126452 8.66442 0 8.35915 0 8C0 7.64085 0.126452 7.33558 0.379355 7.08417L2.22194 5.25253C2.47484 5.00112 2.78194 4.87542 3.14323 4.87542C3.50452 4.87542 3.81161 5.00112 4.06452 5.25253L8.04774 9.22559L16.9355 0.377104C17.1884 0.125701 17.4955 0 17.8568 0C18.2181 0 18.5252 0.125701 18.7781 0.377104L20.6206 2.20875C20.8735 2.46016 21 2.76543 21 3.12458Z" fill="white"/>
</svg>
