<svg width="20" height="20" viewBox="-9 4 30 2" fill="none" xmlns="http://www.w3.org/2000/svg" padding-top="10px">
<path d="M17.7692 8.89398C17.7727 6.88725 17.0958 4.93853 15.8489 3.36554C14.602 1.79255 12.8586 0.688071 10.9031 0.232171C8.94749 -0.223728 6.89506 -0.00415517 5.08038 0.855092C3.26571 1.71434 1.79582 3.16258 0.910374 4.96369C0.0249275 6.76481 -0.223852 8.81255 0.204595 10.7731C0.633043 12.7336 1.71345 14.4913 3.26966 15.7595C4.82587 17.0277 6.7661 17.7317 8.77401 17.7567C10.7819 17.7817 12.7391 17.1262 14.3264 15.897L21.4341 23L23 21.4351L15.8923 14.3322C17.1045 12.7778 17.7648 10.8646 17.7692 8.89398ZM8.88459 15.553C7.56669 15.553 6.27838 15.1625 5.18258 14.4308C4.08678 13.6991 3.23271 12.6591 2.72837 11.4423C2.22403 10.2255 2.09207 8.8866 2.34918 7.59487C2.60629 6.30315 3.24093 5.11663 4.17283 4.18535C5.10473 3.25407 6.29204 2.61986 7.58462 2.36292C8.8772 2.10598 10.217 2.23785 11.4346 2.74185C12.6522 3.24586 13.6929 4.09936 14.4251 5.19443C15.1572 6.2895 15.548 7.57695 15.548 8.89398C15.548 10.6601 14.846 12.3538 13.5964 13.6026C12.3467 14.8514 10.6519 15.553 8.88459 15.553Z" fill="#7E7E7E"/>
</svg>
