<svg width="256" height="256" viewBox="0 0 256 256" fill="none" xmlns="http://www.w3.org/2000/svg">
<path d="M233.3 9.66016H22.7202C15.5073 9.66016 9.66016 15.5073 9.66016 22.7202V233.3C9.66016 240.513 15.5073 246.36 22.7202 246.36H233.3C240.513 246.36 246.36 240.513 246.36 233.3V22.7202C246.36 15.5073 240.513 9.66016 233.3 9.66016Z" fill="#3D5A98"/>
<path d="M172.958 246.34V154.68H203.718L208.318 118.96H172.958V96.1598C172.958 85.8198 175.838 78.7598 190.658 78.7598H209.578V46.7598C200.416 45.8067 191.209 45.3527 181.998 45.3998C154.758 45.3998 135.998 61.9998 135.998 92.6198V118.96H105.238V154.68H135.998V246.34H172.958Z" fill="white"/>
</svg>
