<svg width="15" height="13" viewBox="0 0 23 21" fill="none" xmlns="http://www.w3.org/2000/svg">
<path d="M16.675 0C14.6625 0 12.7651 0.915578 11.5 2.40335C10.2348 0.915578 8.3375 0 6.325 0C2.75989 0 0 2.74646 0 6.29426C0 10.6428 3.90989 14.1336 9.83228 19.5119L11.5 21L13.1677 19.5119C19.0901 14.1335 23 10.6427 23 6.29426C23 2.74646 20.2401 0 16.675 0ZM12.2097 18.0062L11.9764 18.218L11.5 18.6431L11.0236 18.2181L10.7906 18.0065C8.00311 15.4755 5.59569 13.2895 4.00421 11.335C2.45851 9.4366 1.76923 7.882 1.76923 6.29426C1.76923 5.04383 2.23487 3.89178 3.0804 3.05041C3.9231 2.21184 5.07537 1.75 6.325 1.75C7.76991 1.75 9.19834 2.41538 10.146 3.5298L11.5 5.12209L12.854 3.5298C13.8017 2.41538 15.23 1.75 16.675 1.75C17.9247 1.75 19.0769 2.21184 19.9197 3.05036C20.7651 3.89178 21.2308 5.04377 21.2308 6.29426C21.2308 7.882 20.5415 9.43655 18.9959 11.3349C17.4045 13.2894 14.9972 15.4752 12.2097 18.0062Z" fill="#FF0000"/>
</svg>
