<svg width="20" height="20" viewBox="0 0 32 32" fill="none" xmlns="http://www.w3.org/2000/svg">
<path d="M27.0051 29.3693C27.0051 30.8243 22.0751 31.9993 16.0001 31.9993C9.92512 31.9993 4.99512 30.8243 4.99512 29.3693C4.99512 28.0693 8.94512 26.9993 14.1251 26.7793H17.8751C23.0601 26.9993 27.0051 28.0693 27.0051 29.3693Z" fill="#E3E2E1"/>
<path d="M15.9995 0C10.3495 0 5.76953 4.575 5.76953 10.225C5.76953 15.875 15.9995 29.37 15.9995 29.37C15.9995 29.37 26.2245 15.875 26.2245 10.225C26.2245 4.575 21.6495 0 15.9995 0ZM15.9995 16.995C12.2595 16.995 9.22953 13.965 9.22953 10.225C9.22953 6.485 12.2595 3.455 15.9995 3.455C19.7395 3.455 22.7695 6.485 22.7695 10.225C22.7695 13.965 19.7395 16.995 15.9995 16.995Z" fill="#E82327"/>
</svg>
