<svg width="22" height="22" viewBox="0 0 22 22" fill="none" xmlns="http://www.w3.org/2000/svg">
<path d="M18.0714 0C19.1134 0 20.1126 0.413902 20.8493 1.15065C21.5861 1.8874 22 2.88665 22 3.92857V18.0714C22 19.1134 21.5861 20.1126 20.8493 20.8493C20.1126 21.5861 19.1134 22 18.0714 22H3.92857C2.88665 22 1.8874 21.5861 1.15065 20.8493C0.413902 20.1126 0 19.1134 0 18.0714V3.92857C0 2.88665 0.413902 1.8874 1.15065 1.15065C1.8874 0.413902 2.88665 0 3.92857 0H18.0714ZM18.0714 1.57143H3.92857C3.30342 1.57143 2.70387 1.81977 2.26182 2.26182C1.81977 2.70387 1.57143 3.30342 1.57143 3.92857V18.0714C1.57143 18.6966 1.81977 19.2961 2.26182 19.7382C2.70387 20.1802 3.30342 20.4286 3.92857 20.4286H18.0714C18.6966 20.4286 19.2961 20.1802 19.7382 19.7382C20.1802 19.2961 20.4286 18.6966 20.4286 18.0714V3.92857C20.4286 3.30342 20.1802 2.70387 19.7382 2.26182C19.2961 1.81977 18.6966 1.57143 18.0714 1.57143ZM4.71429 8.64286C4.71429 8.43447 4.79707 8.23462 4.94442 8.08727C5.09177 7.93992 5.29162 7.85714 5.5 7.85714H16.5C16.7084 7.85714 16.9082 7.93992 17.0556 8.08727C17.2029 8.23462 17.2857 8.43447 17.2857 8.64286C17.2857 8.85124 17.2029 9.05109 17.0556 9.19844C16.9082 9.34579 16.7084 9.42857 16.5 9.42857H5.5C5.29162 9.42857 5.09177 9.34579 4.94442 9.19844C4.79707 9.05109 4.71429 8.85124 4.71429 8.64286ZM6.28571 13.3571C6.28571 13.1488 6.36849 12.9489 6.51584 12.8016C6.66319 12.6542 6.86304 12.5714 7.07143 12.5714H14.9286C15.137 12.5714 15.3368 12.6542 15.4842 12.8016C15.6315 12.9489 15.7143 13.1488 15.7143 13.3571C15.7143 13.5655 15.6315 13.7654 15.4842 13.9127C15.3368 14.0601 15.137 14.1429 14.9286 14.1429H7.07143C6.86304 14.1429 6.66319 14.0601 6.51584 13.9127C6.36849 13.7654 6.28571 13.5655 6.28571 13.3571Z" fill="black"/>
</svg>
