<svg width="137" height="137" viewBox="0 0 137 137" fill="none" xmlns="http://www.w3.org/2000/svg">
<g clip-path="url(#clip0_146_322)">
<path d="M68.5 137C106.332 137 137 106.332 137 68.5C137 30.6685 106.332 0 68.5 0C30.6685 0 0 30.6685 0 68.5C0 106.332 30.6685 137 68.5 137Z" fill="#C0C6D1"/>
<path d="M68.4998 60.7496C80.9428 60.7496 91.0299 50.6626 91.0299 38.2195C91.0299 25.7765 80.9428 15.6895 68.4998 15.6895C56.0568 15.6895 45.9697 25.7765 45.9697 38.2195C45.9697 50.6626 56.0568 60.7496 68.4998 60.7496Z" fill="#F6F7F8"/>
<path d="M68.4999 121.309C60.2223 121.309 52.1671 118.629 45.5387 113.671C38.9103 108.713 34.0648 101.743 31.7266 93.8022C27.6915 80.0995 37.9639 66.3594 52.2499 66.3594H84.7499C99.0359 66.3594 109.308 80.0942 105.273 93.7968C102.936 101.738 98.0908 108.71 91.4623 113.669C84.8338 118.628 76.7782 121.309 68.4999 121.309Z" fill="#E9EBEF"/>
</g>
<defs>
<clipPath id="clip0_146_322">
<rect width="137" height="137" fill="white"/>
</clipPath>
</defs>
</svg>
