<svg width="33" height="33" viewBox="0 0 33 33" fill="none" xmlns="http://www.w3.org/2000/svg">
<path d="M21.1406 23.2031H11.8594V31.4531H21.1406V23.2031Z" fill="#B0BEC5"/>
<path d="M11.3438 25.4203C11.3438 25.9359 11.7047 26.3484 12.2203 26.4516C13.5609 26.7094 15.0047 26.8641 16.5 26.8641C17.9953 26.8641 19.4391 26.7094 20.7797 26.4516C21.2953 26.3484 21.6562 25.9359 21.6562 25.4203V20.1094H11.3438V25.4203Z" fill="#90A4AE"/>
<path d="M29.1842 21.1406H3.81543C7.11543 24.3375 11.6014 25.7812 16.4998 25.7812C21.3982 25.7812 25.8842 24.3375 29.1842 21.1406Z" fill="#B0BEC5"/>
<path d="M1.03125 18.0469V20.1094C1.03125 20.6766 1.49531 21.1406 2.0625 21.1406H30.9375C31.5047 21.1406 31.9688 20.6766 31.9688 20.1094V18.0469C31.9688 17.8922 31.9688 17.6859 31.9172 17.5312H1.08281C1.03125 17.6859 1.03125 17.8406 1.03125 18.0469Z" fill="#CFD8DC"/>
<path d="M30.525 13.2C30.4734 13.0969 30.4734 12.9938 30.4219 12.8906H2.52656C2.52656 12.9938 2.475 13.0969 2.42344 13.2L1.13438 17.0672C1.08281 17.2219 1.03125 17.3766 1.03125 17.5312H31.8656C31.8141 17.3766 31.8141 17.2219 31.7625 17.0672L30.525 13.2Z" fill="#ECEFF1"/>
<path d="M27.8439 17.0156H5.15644C4.64082 17.0156 4.27988 16.5 4.43457 16.0359C4.69238 15.1078 5.56894 14.4375 6.54863 14.4375H26.4518C27.4314 14.4375 28.308 15.0563 28.5658 16.0359C28.7205 16.5 28.3596 17.0156 27.8439 17.0156Z" fill="#B0BEC5"/>
<path d="M30.4217 12.5813V11.4984C30.4217 11.0344 30.1123 10.6219 29.6482 10.5188C25.4717 9.33281 21.0373 8.76562 16.4998 8.76562C11.9623 8.76562 7.52793 9.33281 3.35137 10.4672C2.8873 10.5703 2.57793 10.9828 2.57793 11.4469V12.5297C2.57793 12.6328 2.57793 12.7359 2.52637 12.8391H30.4217C30.4217 12.7875 30.4217 12.6844 30.4217 12.5813Z" fill="#CFD8DC"/>
<path d="M12.8906 14.4375C12.8906 13.8703 13.3547 13.4062 13.9219 13.4062H19.0781C19.6453 13.4062 20.1094 13.8703 20.1094 14.4375H12.8906Z" fill="#757575"/>
<path d="M14.6953 13.9219H13.6641V12.8906C13.6641 12.5812 13.8703 12.375 14.1797 12.375C14.4891 12.375 14.6953 12.5812 14.6953 12.8906V13.9219Z" fill="#424242"/>
<path d="M14.1797 11.6016C14.1797 11.9109 11.6531 12.1172 11.3438 12.1172C11.0344 12.1172 10.8281 11.9109 10.8281 11.6016C10.8281 11.2922 11.0344 11.0859 11.3438 11.0859C11.6531 11.0859 14.1797 11.2922 14.1797 11.6016Z" fill="#616161"/>
<path d="M14.1797 12.375C14.6068 12.375 14.9531 12.0287 14.9531 11.6016C14.9531 11.1744 14.6068 10.8281 14.1797 10.8281C13.7525 10.8281 13.4062 11.1744 13.4062 11.6016C13.4062 12.0287 13.7525 12.375 14.1797 12.375Z" fill="#757575"/>
<path d="M18.3047 13.9219H19.3359V12.8906C19.3359 12.5812 19.1297 12.375 18.8203 12.375C18.5109 12.375 18.3047 12.5812 18.3047 12.8906V13.9219Z" fill="#424242"/>
<path d="M18.8203 11.6016C18.8203 11.9109 21.3469 12.1172 21.6562 12.1172C21.9656 12.1172 22.1719 11.9109 22.1719 11.6016C22.1719 11.2922 21.9656 11.0859 21.6562 11.0859C21.3469 11.0859 18.8203 11.2922 18.8203 11.6016Z" fill="#616161"/>
<path d="M18.8203 12.375C19.2475 12.375 19.5938 12.0287 19.5938 11.6016C19.5938 11.1744 19.2475 10.8281 18.8203 10.8281C18.3932 10.8281 18.0469 11.1744 18.0469 11.6016C18.0469 12.0287 18.3932 12.375 18.8203 12.375Z" fill="#757575"/>
<path d="M15.7266 7.57969C15.7266 6.70312 15.9328 5.87812 16.7063 5.25937C17.3766 4.74375 18.3562 4.64062 18.975 4.64062C20.3156 4.64062 21.5016 5.62031 21.5531 7.06406H20.0063C20.0063 6.44531 19.4906 5.92969 18.9234 5.87812C18.5109 5.87812 18.0984 6.03281 17.8406 6.29062C17.5312 6.6 17.325 7.06406 17.325 7.52813C17.325 9.17813 17.5313 13.9219 17.5313 13.9219H15.4688C15.4688 13.9219 15.675 9.17812 15.7266 7.57969Z" fill="#757575"/>
</svg>
